<svg xmlns="http://www.w3.org/2000/svg" xmlns:xlink="http://www.w3.org/1999/xlink" viewBox="0 0 64 64" width="512" height="512"><linearGradient id="a" gradientUnits="userSpaceOnUse" x1="32" x2="32" y1="63" y2="5.353"><stop offset="0" stop-color="#006df0"/><stop offset="1" stop-color="#00e7f0"/></linearGradient><linearGradient id="b" x1="12" x2="12" xlink:href="#a" y2="5.353"/><linearGradient id="c" x1="52" x2="52" xlink:href="#a" y2="5.353"/><linearGradient id="d" x1="48" x2="48" xlink:href="#a" y2="5.353"/><path d="M57 15v-2a1 1 0 00-1-1h-6a1 1 0 00-1 1v2h-2.42l-2.56-4.474A5 5 0 0039.68 8H24.32a5 5 0 00-4.338 2.523L17.42 15H17v-3a1 1 0 00-1-1H8a1 1 0 00-1 1v3a5.006 5.006 0 00-5 5v28a5.006 5.006 0 005 5h27.932A13.995 13.995 0 0062 48V20a5.006 5.006 0 00-5-5zm-6-1h4v1h-4zM9 13h6v2H9zm27.868 26.527c-.024.032-.055.059-.079.092a9 9 0 112.83-2.83c-.033.024-.06.055-.092.079a13.724 13.724 0 00-2.659 2.659zm7.912-5.152c-.161.038-.314.093-.473.136-.2.053-.389.106-.581.167-.282.09-.559.2-.834.3-.112.044-.23.077-.341.124a11.007 11.007 0 10-7.451 7.449c-.048.115-.082.235-.128.351-.1.269-.208.54-.3.816-.062.195-.116.393-.17.592-.043.157-.1.31-.135.47A12.8 12.8 0 0132 45a13 13 0 1113-13 12.8 12.8 0 01-.22 2.375zM48 60a12 12 0 01-12-12 11.534 11.534 0 01.2-2.2 11.81 11.81 0 012.1-4.862.732.732 0 00.052-.08 11.872 11.872 0 01.919-1.071c.081-.086.148-.186.232-.27a11.789 11.789 0 011.339-1.153.709.709 0 00.093-.061 11.826 11.826 0 014.87-2.1A11.553 11.553 0 0148 36a12 12 0 010 24zm11.57-19.87a15.61 15.61 0 00-.7-.941c-.06-.073-.121-.144-.182-.216a14.29 14.29 0 00-.693-.762c-.045-.046-.088-.095-.134-.14a14.368 14.368 0 00-1.934-1.601c-.046-.032-.089-.066-.135-.1a13.734 13.734 0 00-1.008-.613c-.086-.048-.173-.094-.261-.141-.322-.17-.65-.33-.986-.475-.039-.017-.076-.036-.114-.052a14.05 14.05 0 00-1.128-.414c-.1-.031-.191-.06-.288-.088-.37-.111-.745-.211-1.128-.291l-.071-.017a13.95 13.95 0 00-1.225-.188l-.307-.031c-.424-.034-.847-.06-1.276-.06-.393 0-.777.022-1.156.052A14.863 14.863 0 0047 32a15 15 0 10-15 15 14.735 14.735 0 002.053-.157c-.031.38-.053.764-.053 1.157 0 .455.029.906.073 1.355.012.128.029.255.044.382q.066.522.169 1.036c.015.075.021.152.037.227H7a3 3 0 01-3-3V20a3 3 0 013-3h11a1 1 0 00.868-.5l2.852-4.983A3 3 0 0124.32 10h15.36a3 3 0 012.6 1.517l2.85 4.98A1 1 0 0046 17h11a3 3 0 013 3v20.8c-.1-.167-.21-.328-.317-.49-.038-.063-.074-.123-.113-.18z" fill="url(#a)"/><path d="M12 20a1 1 0 00-1 1v24a1 1 0 002 0V21a1 1 0 00-1-1z" fill="url(#b)"/><path d="M52 19a3 3 0 103 3 3 3 0 00-3-3zm0 4a1 1 0 111-1 1 1 0 01-1 1z" fill="url(#c)"/><path d="M49 47v-7a1 1 0 00-2 0v7h-7a1 1 0 000 2h7v7a1 1 0 002 0v-7h7a1 1 0 000-2z" fill="url(#d)"/></svg>