<svg height="512" width="512" xmlns="http://www.w3.org/2000/svg"><linearGradient id="a" gradientUnits="userSpaceOnUse" x1="256" x2="256" y1="512" y2="0"><stop offset="0" stop-color="#addcff"/><stop offset=".503" stop-color="#eaf6ff"/><stop offset="1" stop-color="#eaf6ff"/></linearGradient><linearGradient id="b" gradientUnits="userSpaceOnUse" x1="255.967" x2="255.967" y1="105" y2="406.938"><stop offset="0" stop-color="#5558ff"/><stop offset="1" stop-color="#00c0ff"/></linearGradient><circle cx="256" cy="256" fill="url(#a)" r="256"/><path d="M380.679 342.33l-62.804-45.041c-2.923-2.108-6.817-2.22-9.888-.312l-35.249 22.083c-6.774 2.047-38.328-16.982-64.062-48.319-16.453-20.036-17.286-29.923-16.592-31.276l22.455-35.934a8.888 8.888 0 00-.312-9.887l-45.041-62.804a8.904 8.904 0 00-6.496-3.677c-2.455-.139-5.152.737-6.999 2.576l-32.404 32.404c-18.353 18.344-23.47 46.299-12.715 69.552 24.858 53.758 74.556 126.9 170.085 170.068 22.854 10.312 50.303 4.876 68.398-13.218l32.725-32.716a8.88 8.88 0 00-1.101-13.499zM362.526 105h-71.052c-24.485 0-44.408 19.923-44.408 44.408v35.526c0 21.449 15.282 39.386 35.526 43.514v18.656a8.885 8.885 0 004.909 7.945 8.875 8.875 0 009.298-.841l33.158-24.867h32.569c24.485 0 44.408-19.923 44.408-44.408v-35.526c0-24.484-19.923-44.407-44.408-44.407zm-71.052 71.054a8.883 8.883 0 11.001-17.765 8.883 8.883 0 01-.001 17.765zm35.526 0a8.883 8.883 0 11.001-17.765 8.883 8.883 0 01-.001 17.765zm35.526 0a8.883 8.883 0 11.001-17.765 8.883 8.883 0 01-.001 17.765z" fill="url(#b)"/></svg>